# xmcd
#
# Track frame offsets:
#	150
#	12543
#	31691
#	52237
#	73798
#	103740
#	132647
#	149582
#	166715
#	189880
#
# Disc length: 2824 seconds
#
# Revision: 0
# Processed by: cddbd v1.5.1PL2 Copyright (c) Steve Scherf et al.
# Submitted via: EasyCDDAExtractor 8.2.3.1
#
DISCID=900b060a
DTITLE=Paul Barrere and Fred Tackett - Grand Lido Negril - Jamaica 01-29-04 (mat
DTITLE=rix) disc 1
DYEAR=2004
DGENRE=Blues
TTITLE0=intro
TTITLE1=Ain't Had Enough Fun
TTITLE2=Two Trains ->
TTITLE3=Rocket In My Pocket
TTITLE4=Fat Man In The Bathtub
TTITLE5=Cajun Rage
TTITLE6=Trouble ->
TTITLE7=Roll Um Easy
TTITLE8=Heaven Forsaken ->
TTITLE9=Gold Tooth Woman
EXTD=
EXTT0=
EXTT1=
EXTT2=
EXTT3=
EXTT4=
EXTT5=
EXTT6=
EXTT7=
EXTT8=
EXTT9=
PLAYORDER=
